PathFileType	4	(X/Y/Z)	C:\Users\WrightLab\Desktop\Jo\P5V22.trc
DataRate	CameraRate	NumFrames	NumMarkers	Units	OrigDataRate	OrigDataStartFrame	OrigNumFrames
100.00	100.00	      36	19	mm	100.00	1	      1103
Frame#	Time	Headset_Front			Headset_Back			Headset_Left			Headset_Right			Left_Shoulder			Right_Shoulder			Sternum			C7			Left Elbow			Right Elbow			Left Wrist			Right Wrist			Left ASIS			Right ASIS			S2			Left Knee			Right Knee			Left Ankle			Right Ankle			
		X1	Y1	Z1	X2	Y2	Z2	X3	Y3	Z3	X4	Y4	Z4	X5	Y5	Z5	X6	Y6	Z6	X7	Y7	Z7	X8	Y8	Z8	X9	Y9	Z9	X10	Y10	Z10	X11	Y11	Z11	X12	Y12	Z12	X13	Y13	Z13	X14	Y14	Z14	X15	Y15	Z15	X16	Y16	Z16	X17	Y17	Z17	X18	Y18	Z18	X19	Y19	Z19	

1	0.000																												-557.92407	1187.28589	-1179.33325				-460.65353	1043.91248	-1019.72223	-116.72704	899.10138	-1118.53735	-388.95074	930.46240	-1074.73657				-62.06678	483.06711	-1163.44263	-432.44186	470.37881	-1110.32141				-405.63187	73.27499	-1226.28369	
2	0.010																												-557.88440	1187.38123	-1179.05066				-460.77142	1043.35156	-1019.82007	-116.65482	899.12787	-1118.50146	-389.14624	930.01855	-1074.93201				-62.35839	483.04504	-1163.67151	-431.96594	469.73712	-1110.39746				-405.63873	73.25652	-1226.31238	
3	0.020																												-557.96527	1187.24390	-1179.11182				-460.94745	1043.14148	-1020.04803	-116.54736	899.11078	-1118.44617	-389.20322	930.30945	-1075.24365				-62.16294	482.87796	-1164.07092	-431.97415	469.84106	-1111.19934				-405.65167	73.23680	-1226.37000	
4	0.030																												-557.92908	1187.31580	-1178.83972				-460.94800	1043.13208	-1020.04736	-116.34328	899.12061	-1118.34253	-389.37885	930.18805	-1075.51587				-62.20486	482.85812	-1164.08337	-432.10849	469.69827	-1111.52258				-405.65726	73.20637	-1226.38965	
5	0.040																												-557.85211	1187.44287	-1178.69263				-460.68750	1042.56152	-1019.99188	-116.28556	899.11664	-1118.31299	-389.37885	930.18805	-1075.51587				-62.28257	482.84857	-1164.11426	-431.91672	469.82639	-1111.55347				-405.60730	73.29426	-1226.16992	
6	0.050																												-557.28583	1187.44312	-1178.90405				-460.66934	1042.74414	-1019.93201	-113.77345	899.17126	-1117.39478	-389.37885	930.18805	-1075.51587				-62.38730	482.51990	-1164.48132	-431.51315	469.76871	-1112.17432				-405.62915	73.27662	-1226.27100	
7	0.060																												-556.71558	1187.77332	-1178.89221				-460.35114	1042.38794	-1019.91962	-113.80405	899.17334	-1117.41602	-389.37885	930.18805	-1075.51587				-62.79410	482.84445	-1164.48730	-431.42188	470.05832	-1111.95325				-405.62082	73.27662	-1226.23083	
8	0.070																												-556.69080	1187.75037	-1179.39905				-460.68137	1042.75598	-1019.93896	-113.77174	899.16418	-1117.39331	-389.37885	930.18805	-1075.51587				-63.03926	482.85025	-1164.69592	-431.23923	470.21512	-1112.21155				-405.65469	73.22279	-1226.38110	
9	0.080																												-556.69128	1187.75012	-1179.39905				-460.81207	1043.21326	-1019.81598	-113.67326	899.17688	-1117.32544	-389.37885	930.18805	-1075.51587				-63.12090	482.83221	-1164.72607	-431.17596	470.13174	-1112.84155				-405.62659	73.28780	-1226.26123	
10	0.090																												-556.74738	1187.60754	-1179.52441				-460.78311	1043.21326	-1019.80206	-113.21194	899.36206	-1115.98718	-389.37885	930.18805	-1075.51587				-63.29683	482.96014	-1164.79041	-431.17596	470.13174	-1112.84155				-405.61856	73.29241	-1226.22375	
11	0.100																												-557.74359	1188.16235	-1179.80786				-460.67288	1043.33679	-1019.77112	-113.67455	899.43835	-1116.14978	-389.37885	930.18805	-1075.51587				-63.31894	482.95288	-1164.79785	-431.17596	470.13174	-1112.84155				-405.59970	73.29260	-1226.13293	
12	0.110																												-556.74030	1187.54724	-1180.03210				-460.39255	1043.58252	-1019.43408	-113.61553	899.43414	-1116.10876	-389.37885	930.18805	-1075.51587				-63.74004	482.62619	-1165.03784	-431.02899	470.20300	-1113.26587				-405.63446	73.26867	-1226.29468	
13	0.120																												-555.93341	1187.41089	-1180.00159				-460.36642	1043.58228	-1019.42145	-113.57558	899.43811	-1116.08118	-389.37885	930.18805	-1075.51587				-63.79198	482.60733	-1165.05493	-431.05136	470.25958	-1112.92822				-405.63281	73.27928	-1226.28943	
14	0.130																												-556.00073	1187.27466	-1180.11279				-460.49695	1043.90039	-1019.64563	-113.57993	899.42999	-1116.08398	-389.37885	930.18805	-1075.51587				-64.08929	482.74789	-1164.69165	-431.05380	470.25842	-1112.92834				-405.61566	73.31783	-1226.21594	
15	0.140																												-555.89270	1187.39880	-1179.99170				-460.32483	1043.59119	-1019.40228	-113.48207	899.44427	-1116.01660	-389.37885	930.18805	-1075.51587				-64.43816	482.91132	-1164.19666	-431.05136	470.25958	-1112.92822				-405.62943	73.29087	-1226.27576	
16	0.150																												-556.84570	1187.98950	-1179.87268				-460.46631	1043.91309	-1019.63214	-113.43839	899.43713	-1115.98608	-389.37885	930.18805	-1075.51587				-64.72202	482.91742	-1164.23474	-431.16107	470.23209	-1112.48914				-405.61743	73.32162	-1226.22534	
17	0.160																												-556.71411	1187.94507	-1179.86707				-460.33334	1043.59875	-1019.40717	-113.37064	899.45105	-1115.93958	-389.20322	930.30945	-1075.24365				-64.58930	483.04709	-1163.97961	-431.28122	470.24551	-1111.87256				-405.61731	73.34945	-1226.23145	
18	0.170																												-556.59052	1187.97290	-1180.04260				-460.44781	1043.92163	-1019.62408	-113.33308	899.03473	-1115.29114	-389.14624	930.01855	-1074.93201				-64.92363	482.99768	-1164.00903	-431.24945	470.36975	-1111.54126				-405.61755	73.32627	-1226.22693	
19	0.180																												-556.43176	1188.01880	-1180.06079				-460.42087	1043.92090	-1019.61102	-113.24355	899.04712	-1115.22961	-389.37885	930.18805	-1075.51587				-65.25600	482.81107	-1164.01282	-431.24734	470.37076	-1111.54114				-405.60376	73.34168	-1226.16431	
20	0.190																												-555.60608	1187.49109	-1180.60156				-460.50632	1044.11340	-1019.65259	-113.25934	898.63770	-1114.61914	-389.20322	930.30945	-1075.24365				-65.18864	482.66373	-1163.23059	-431.24414	470.37225	-1111.54077				-405.62268	73.29724	-1226.24487	
21	0.200																												-555.52832	1187.55664	-1180.76489				-460.51654	1044.13074	-1019.65924	-113.12110	898.64081	-1114.52344	-389.06519	930.04852	-1074.66675				-65.16124	482.65384	-1163.21594	-431.00616	469.87875	-1111.02991				-405.62411	73.31525	-1226.25598	
22	0.210																												-555.48474	1187.54834	-1180.75488				-460.54037	1044.12964	-1019.67059	-113.52271	898.40991	-1114.63147	-389.06519	930.04852	-1074.66675				-65.33037	482.68188	-1162.42151	-431.57462	470.06537	-1110.26794				-405.62039	73.31281	-1226.23755	
23	0.220																												-555.45612	1187.53259	-1180.74719				-460.49063	1044.62341	-1019.02869	-114.12038	898.30029	-1114.83618	-389.09650	930.07355	-1074.05994				-65.78198	482.21228	-1162.36743	-431.76642	469.93723	-1110.23718				-405.58765	73.37931	-1226.09570	
24	0.230																												-556.02856	1187.75964	-1180.69531				-460.24170	1044.47449	-1019.25848	-114.09056	898.30621	-1114.81567	-388.89371	930.17151	-1074.42493				-65.56610	482.04053	-1162.09009	-431.84766	469.86157	-1110.14636				-405.60355	73.34880	-1226.16492	
25	0.240																												-556.01099	1187.64539	-1180.77441				-460.45694	1044.74719	-1019.37183	-114.05781	899.07520	-1112.85620	-389.09650	930.07355	-1074.05994				-65.66116	481.92438	-1161.36377	-431.84766	469.86157	-1110.14636				-405.58069	73.38137	-1226.06250	
26	0.250																												-556.04993	1187.51208	-1181.39966				-460.76904	1044.93164	-1019.17609	-114.02740	899.08575	-1112.83557	-389.20236	929.69641	-1073.35681				-65.16018	482.06259	-1160.87488	-431.97665	469.26999	-1109.31274				-405.59247	73.37408	-1226.11755	
27	0.260																												-555.99756	1187.44604	-1181.42688				-460.77258	1044.95020	-1019.17963	-114.01259	899.08868	-1112.82544	-389.76773	930.09137	-1073.37659				-65.19592	482.21121	-1159.87195	-432.30884	469.95892	-1109.70911				-405.60193	73.36582	-1226.16125	
28	0.270																												-555.96527	1187.45349	-1181.90247				-460.78857	1044.95898	-1019.18817	-113.99570	899.60052	-1112.05298	-389.76773	930.09137	-1073.37659				-65.14590	482.20355	-1159.84814	-433.64932	471.39343	-1108.78455				-405.59326	73.38040	-1226.12292	
29	0.280																												-555.95953	1187.43567	-1182.36877				-460.83398	1044.96851	-1019.21106	-113.93070	899.61707	-1112.00867	-389.64648	929.75793	-1072.95776				-65.09299	482.20728	-1159.82642	-432.55893	470.02405	-1108.77625				-405.57971	73.40028	-1226.06238	
30	0.290																												-555.70984	1186.91003	-1182.67078				-460.86911	1044.97253	-1019.22839	-113.88242	899.63025	-1111.97571	-389.77026	930.05646	-1073.20215				-65.28622	482.37515	-1159.42676	-433.79224	471.26794	-1108.43945				-405.59076	73.39774	-1226.11511	
31	0.300																												-555.68817	1186.90271	-1182.66553				-460.90475	1044.98767	-1019.24701	-114.25864	899.57983	-1110.91125	-389.64648	929.75793	-1072.95776				-64.70860	482.70816	-1158.67822	-434.07181	471.10413	-1108.10266				-405.58127	73.39481	-1226.06860	
32	0.310																												-555.69385	1186.91138	-1182.66760				-460.95255	1044.98596	-1019.26990	-114.16839	899.58594	-1110.84912	-390.11728	930.26825	-1073.29883				-64.34104	482.92477	-1158.23560	-434.32858	470.85550	-1107.69727				-405.58694	73.39569	-1226.09619	
33	0.320																												-555.71362	1186.86816	-1183.10400				-460.96686	1045.00256	-1019.27844	-114.11823	899.19696	-1110.19458	-389.99265	930.33862	-1073.02075				-63.69904	482.92633	-1158.10413	-434.38043	470.81027	-1108.05054				-405.59128	73.39970	-1226.11804	
34	0.330																												-554.89465	1186.76331	-1183.08118				-460.96628	1044.99500	-1019.27740	-114.03290	899.20441	-1110.13586	-389.86877	930.04010	-1072.77637				-63.12518	483.00876	-1157.49219	-434.62540	470.58517	-1107.54883				-405.58069	73.38137	-1226.06250	
35	0.340																												-554.93567	1186.61096	-1183.17908				-460.98807	1045.00415	-1019.28882	-113.94217	899.20270	-1110.07312	-390.83646	931.00574	-1072.90161				-63.08660	482.67572	-1157.01355	-434.64133	470.57587	-1107.55481				-405.60150	73.36845	-1226.15979	
36	0.350																												-554.96783	1186.52063	-1183.43213				-460.96890	1045.06140	-1019.41028	-113.87441	899.20270	-1110.02625	-390.15945	930.24445	-1072.33765				-63.20466	482.86853	-1156.70166	-434.85400	470.44080	-1107.53223				-405.59113	73.39526	-1226.11621	
